# xmcd
#
# Track frame offsets: 
#        150
#        17099
#        38031
#        56969
#        76740
#        89207
#        106129
#        137060
#        160058
#        175890
#        195113
#        212522
#        226414
#        242905
#
# Disc length: 3466 seconds
#
# Revision: 2
# Processed by: cddbd v1.5.2PL0 Copyright (c) Steve Scherf et al.
# Submitted via: ExactAudioCopy v0.95b2
#
DISCID=b10d880e
DTITLE=Holland Dozier Holland - Why Can't We Be Lovers [CD2)
DYEAR=2000
DGENRE=Soul
TTITLE0=Don't Stop Playing Our Song
TTITLE1=The Picture Will Never Change
TTITLE2=Where Did We Go Wrong
TTITLE3=Lady By Day
TTITLE4=Don't Leave Me (inst)
TTITLE5=Why Can't We Be Lovers (single edit)
TTITLE6=Hijackin' (long version)
TTITLE7=Where Did We Go Wrong  (long version) (Featuring Eloise Laws)
TTITLE8=Slipping Away (long version)
TTITLE9=Super Woman (You Ain't No Ordinary Woman) (long version)
TTITLE10=New Breed Kinda Woman (long version)
TTITLE11=If You Don't Want To Be In My Life (long version)
TTITLE12=You Took Me From A World Outside (long version)
TTITLE13=Let's Get Together (long version)
EXTD=
EXTT0=
EXTT1=
EXTT2=
EXTT3=
EXTT4=
EXTT5=
EXTT6=
EXTT7=
EXTT8=
EXTT9=
EXTT10=
EXTT11=
EXTT12=
EXTT13=
PLAYORDER=
